<svg width="18" height="18" viewBox="0 0 18 18" fill="none" xmlns="http://www.w3.org/2000/svg">
<path d="M17.125 15.25H0.875C0.70924 15.25 0.550269 15.3158 0.433058 15.4331C0.315848 15.5503 0.25 15.7092 0.25 15.875L0.25 17.125C0.25 17.2908 0.315848 17.4497 0.433058 17.5669C0.550269 17.6842 0.70924 17.75 0.875 17.75H17.125C17.2908 17.75 17.4497 17.6842 17.5669 17.5669C17.6842 17.4497 17.75 17.2908 17.75 17.125V15.875C17.75 15.7092 17.6842 15.5503 17.5669 15.4331C17.4497 15.3158 17.2908 15.25 17.125 15.25ZM17.125 10.25H0.875C0.70924 10.25 0.550269 10.3158 0.433058 10.4331C0.315848 10.5503 0.25 10.7092 0.25 10.875L0.25 12.125C0.25 12.2908 0.315848 12.4497 0.433058 12.5669C0.550269 12.6842 0.70924 12.75 0.875 12.75H17.125C17.2908 12.75 17.4497 12.6842 17.5669 12.5669C17.6842 12.4497 17.75 12.2908 17.75 12.125V10.875C17.75 10.7092 17.6842 10.5503 17.5669 10.4331C17.4497 10.3158 17.2908 10.25 17.125 10.25ZM17.125 5.25H0.875C0.70924 5.25 0.550269 5.31585 0.433058 5.43306C0.315848 5.55027 0.25 5.70924 0.25 5.875L0.25 7.125C0.25 7.29076 0.315848 7.44973 0.433058 7.56694C0.550269 7.68415 0.70924 7.75 0.875 7.75H17.125C17.2908 7.75 17.4497 7.68415 17.5669 7.56694C17.6842 7.44973 17.75 7.29076 17.75 7.125V5.875C17.75 5.70924 17.6842 5.55027 17.5669 5.43306C17.4497 5.31585 17.2908 5.25 17.125 5.25ZM17.125 0.25H0.875C0.70924 0.25 0.550269 0.315848 0.433058 0.433058C0.315848 0.550268 0.25 0.70924 0.25 0.875L0.25 2.125C0.25 2.29076 0.315848 2.44973 0.433058 2.56694C0.550269 2.68415 0.70924 2.75 0.875 2.75H17.125C17.2908 2.75 17.4497 2.68415 17.5669 2.56694C17.6842 2.44973 17.75 2.29076 17.75 2.125V0.875C17.75 0.70924 17.6842 0.550268 17.5669 0.433058C17.4497 0.315848 17.2908 0.25 17.125 0.25Z" fill="#FF6E41"/>
</svg>
